<svg width="380" height="168" viewBox="0 0 380 168" fill="none" xmlns="http://www.w3.org/2000/svg">
<g filter="url(#filter0_d_906_1672)">
<path d="M225.012 159.367C203.903 159.367 183.658 150.982 168.732 136.055C153.805 121.129 145.42 100.884 145.42 79.7751C145.42 58.666 153.805 38.4215 168.732 23.4951C183.658 8.56867 203.903 0.183106 225.012 0.183105C227.414 0.183106 229.717 1.13725 231.416 2.83565C233.114 4.53405 234.068 6.83756 234.068 9.23946C234.068 11.6414 233.114 13.9449 231.416 15.6433C229.717 17.3417 227.414 18.2958 225.012 18.2958C212.852 18.2958 200.966 21.9015 190.856 28.657C180.746 35.4124 172.866 45.0141 168.212 56.248C163.559 67.4819 162.342 79.8433 164.714 91.7692C167.086 103.695 172.941 114.65 181.54 123.248C190.138 131.846 201.092 137.701 213.018 140.073C224.944 142.445 237.305 141.228 248.539 136.575C259.773 131.921 269.375 124.041 276.13 113.931C282.886 103.821 286.491 91.9346 286.491 79.7751C286.491 77.3732 287.445 75.0697 289.144 73.3713C290.842 71.6729 293.146 70.7188 295.548 70.7188C297.95 70.7188 300.253 71.6729 301.951 73.3713C303.65 75.0697 304.604 77.3732 304.604 79.7751C304.603 100.884 296.217 121.128 281.291 136.054C266.364 150.98 246.121 159.366 225.012 159.367Z" fill="url(#paint0_linear_906_1672)"/>
<path d="M295.41 159.184C293.008 159.184 290.705 158.23 289.007 156.532C287.308 154.833 286.354 152.53 286.354 150.128C286.354 147.726 287.308 145.422 289.007 143.724C290.705 142.026 293.008 141.071 295.41 141.071C307.57 141.071 319.456 137.466 329.566 130.71C339.677 123.955 347.557 114.353 352.21 103.119C356.863 91.8853 358.081 79.5239 355.708 67.598C353.336 55.6722 347.481 44.7177 338.883 36.1196C330.285 27.5216 319.33 21.6663 307.404 19.2941C295.479 16.9219 283.117 18.1394 271.883 22.7926C260.649 27.4458 251.048 35.3258 244.292 45.436C237.537 55.5462 233.931 67.4326 233.931 79.5921C233.931 81.994 232.977 84.2975 231.279 85.9959C229.58 87.6943 227.277 88.6484 224.875 88.6484C222.473 88.6484 220.169 87.6943 218.471 85.9959C216.773 84.2975 215.818 81.994 215.818 79.5921C215.818 63.8502 220.486 48.4619 229.232 35.3731C237.978 22.2843 250.408 12.0828 264.952 6.05862C279.495 0.034488 295.499 -1.5417 310.938 1.52937C326.377 4.60045 340.559 12.1809 351.69 23.312C362.822 34.4431 370.402 48.6251 373.473 64.0644C376.544 79.5038 374.968 95.5071 368.944 110.051C362.92 124.594 352.718 137.025 339.629 145.77C326.54 154.516 311.152 159.184 295.41 159.184Z" fill="url(#paint1_linear_906_1672)"/>
<path d="M140.059 23.3705C127.022 10.331 109.867 2.21553 91.5164 0.406902C73.1662 -1.40172 54.7566 3.20839 39.4245 13.4517C24.0923 23.6951 12.7863 38.9378 7.4329 56.5827C2.0795 74.2276 3.00994 93.1828 10.0657 110.219C17.1215 127.254 29.8659 141.316 46.1276 150.009C62.3892 158.701 81.1618 161.486 99.2467 157.889C117.332 154.292 133.61 144.536 145.307 130.282C157.005 116.028 163.398 98.1597 163.398 79.7206C163.426 69.2514 161.378 58.8807 157.372 49.2083C153.366 39.5359 147.481 30.7539 140.059 23.3705ZM83.7041 141.276C71.5245 141.276 59.6184 137.665 49.4914 130.898C39.3645 124.131 31.4714 114.514 26.8105 103.261C22.1496 92.0087 20.9301 79.6268 23.3062 67.6812C25.6823 55.7356 31.5473 44.7629 40.1596 36.1506C48.7719 27.5383 59.7446 21.6733 71.6902 19.2972C83.6358 16.9211 96.0177 18.1406 107.27 22.8015C118.523 27.4624 128.14 35.3554 134.907 45.4824C141.674 55.6094 145.285 67.5155 145.285 79.6951C145.272 96.0233 138.779 111.679 127.234 123.225C115.688 134.77 100.032 141.263 83.7041 141.276Z" fill="#015AEB"/>
<path d="M151.081 159.368C148.686 159.377 146.385 158.436 144.684 156.749L106.39 118.619C104.742 116.914 103.828 114.63 103.845 112.259C103.862 109.887 104.809 107.616 106.482 105.935C108.155 104.254 110.421 103.297 112.792 103.268C115.164 103.24 117.452 104.143 119.165 105.783L157.474 143.909C158.739 145.174 159.601 146.787 159.951 148.543C160.3 150.298 160.122 152.118 159.438 153.772C158.754 155.426 157.595 156.84 156.108 157.836C154.62 158.832 152.871 159.365 151.081 159.368Z" fill="#015AEB"/>
</g>
<defs>
<filter id="filter0_d_906_1672" x="0" y="0" width="379.002" height="167.421" filterUnits="userSpaceOnUse" color-interpolation-filters="sRGB">
<feFlood flood-opacity="0" result="BackgroundImageFix"/>
<feColorMatrix in="SourceAlpha" type="matrix" values="0 0 0 0 0 0 0 0 0 0 0 0 0 0 0 0 0 0 127 0" result="hardAlpha"/>
<feOffset dy="4"/>
<feGaussianBlur stdDeviation="2"/>
<feComposite in2="hardAlpha" operator="out"/>
<feColorMatrix type="matrix" values="0 0 0 0 0 0 0 0 0 0 0 0 0 0 0 0 0 0 0.25 0"/>
<feBlend mode="normal" in2="BackgroundImageFix" result="effect1_dropShadow_906_1672"/>
<feBlend mode="normal" in="SourceGraphic" in2="effect1_dropShadow_906_1672" result="shape"/>
</filter>
<linearGradient id="paint0_linear_906_1672" x1="145.42" y1="79.7955" x2="304.604" y2="79.7955" gradientUnits="userSpaceOnUse">
<stop stop-color="#55C9F2"/>
<stop offset="1" stop-color="#2F81ED"/>
</linearGradient>
<linearGradient id="paint1_linear_906_1672" x1="215.818" y1="79.5921" x2="375.002" y2="79.5921" gradientUnits="userSpaceOnUse">
<stop stop-color="#55C9F2"/>
<stop offset="1" stop-color="#2F81ED"/>
</linearGradient>
</defs>
</svg>
