<svg width="152" height="88" viewBox="0 0 152 88" fill="none" xmlns="http://www.w3.org/2000/svg">
<path d="M95.7185 72.6343C87.8587 72.6343 80.3208 69.512 74.763 63.9543C69.2053 58.3965 66.083 50.8586 66.083 42.9988C66.083 35.139 69.2053 27.6011 74.763 22.0433C80.3208 16.4856 87.8587 13.3633 95.7185 13.3633C96.6129 13.3633 97.4705 13.7186 98.1029 14.3509C98.7353 14.9833 99.0906 15.841 99.0906 16.7353C99.0906 17.6297 98.7353 18.4874 98.1029 19.1198C97.4705 19.7521 96.6129 20.1074 95.7185 20.1074C91.191 20.1074 86.7652 21.45 83.0008 23.9653C79.2363 26.4806 76.3022 30.0558 74.5696 34.2386C72.8371 38.4215 72.3837 43.0242 73.267 47.4647C74.1503 51.9052 76.3305 55.984 79.5319 59.1854C82.7333 62.3869 86.8121 64.5671 91.2526 65.4503C95.6931 66.3336 100.296 65.8803 104.479 64.1477C108.662 62.4151 112.237 59.481 114.752 55.7166C117.267 51.9521 118.61 47.5263 118.61 42.9988C118.61 42.1045 118.965 41.2468 119.598 40.6144C120.23 39.982 121.088 39.6267 121.982 39.6267C122.876 39.6267 123.734 39.982 124.366 40.6144C124.999 41.2468 125.354 42.1045 125.354 42.9988C125.354 50.8585 122.231 58.3961 116.673 63.9537C111.116 69.5113 103.578 72.6338 95.7185 72.6343Z" fill="white"/>
<path d="M121.931 72.566C121.037 72.566 120.179 72.2107 119.547 71.5783C118.915 70.9459 118.559 70.0882 118.559 69.1939C118.559 68.2996 118.915 67.4419 119.547 66.8095C120.179 66.1771 121.037 65.8218 121.931 65.8218C126.459 65.8218 130.885 64.4793 134.649 61.9639C138.414 59.4486 141.348 55.8735 143.08 51.6906C144.813 47.5077 145.266 42.9051 144.383 38.4646C143.5 34.0241 141.319 29.9452 138.118 26.7438C134.917 23.5424 130.838 21.3622 126.397 20.4789C121.957 19.5957 117.354 20.049 113.171 21.7816C108.988 23.5142 105.413 26.4482 102.898 30.2127C100.383 33.9772 99.04 38.403 99.04 42.9305C99.04 43.8248 98.6848 44.6825 98.0524 45.3149C97.42 45.9473 96.5623 46.3025 95.668 46.3025C94.7736 46.3025 93.9159 45.9473 93.2836 45.3149C92.6512 44.6825 92.2959 43.8248 92.2959 42.9305C92.2959 37.0691 94.034 31.3394 97.2904 26.4658C100.547 21.5923 105.175 17.7938 110.59 15.5508C116.006 13.3078 121.964 12.7209 127.713 13.8644C133.462 15.0079 138.742 17.8304 142.887 21.975C147.031 26.1196 149.854 31.4001 150.997 37.1488C152.141 42.8976 151.554 48.8563 149.311 54.2715C147.068 59.6867 143.27 64.3151 138.396 67.5715C133.522 70.8279 127.793 72.566 121.931 72.566Z" fill="white"/>
<path d="M64.0879 21.9962C59.2336 17.141 52.8459 14.1193 46.0134 13.4459C39.1808 12.7724 32.3261 14.489 26.6173 18.303C20.9085 22.1171 16.6988 27.7926 14.7055 34.3625C12.7122 40.9325 13.0586 47.9903 15.6858 54.3334C18.3129 60.6766 23.0582 65.9125 29.1132 69.1491C35.1681 72.3857 42.1579 73.4227 48.8917 72.0833C55.6254 70.744 61.6864 67.1112 66.042 61.8039C70.3975 56.4967 72.778 49.8434 72.7779 42.9777C72.7884 39.0796 72.0257 35.2182 70.5341 31.6167C69.0425 28.0153 66.8515 24.7454 64.0879 21.9962ZM43.1045 65.8976C38.5695 65.8976 34.1364 64.5528 30.3657 62.0333C26.5949 59.5138 23.656 55.9327 21.9206 51.7429C20.1851 47.5531 19.731 42.9428 20.6158 38.495C21.5005 34.0471 23.6843 29.9615 26.891 26.7548C30.0977 23.5481 34.1834 21.3643 38.6312 20.4795C43.0791 19.5948 47.6894 20.0489 51.8792 21.7843C56.0689 23.5198 59.65 26.4587 62.1695 30.2294C64.689 34.0001 66.0338 38.4333 66.0338 42.9683C66.0288 49.048 63.6114 54.8772 59.3124 59.1762C55.0134 63.4752 49.1842 65.8926 43.1045 65.8976Z" fill="white"/>
<path d="M68.1922 72.6343C67.3004 72.6379 66.4436 72.2873 65.8101 71.6594L51.5519 57.4619C50.938 56.827 50.5977 55.9766 50.6041 55.0936C50.6105 54.2105 50.963 53.3651 51.586 52.7392C52.2089 52.1133 53.0526 51.7567 53.9356 51.7461C54.8187 51.7355 55.6706 52.0717 56.3084 52.6825L70.5724 66.8782C71.0436 67.3496 71.3645 67.95 71.4947 68.6037C71.6248 69.2573 71.5584 69.9349 71.3037 70.5508C71.049 71.1667 70.6175 71.6933 70.0637 72.0641C69.5099 72.4349 68.8587 72.6333 68.1922 72.6343Z" fill="white"/>
</svg>
